<svg width="128" height="160" viewBox="0 0 128 128" fill="none" xmlns="http://www.w3.org/2000/svg">
<rect width="128" height="128" fill="white"/>
<rect x="19.5" y="19.5" width="98" height="94" rx="7.5" stroke-width="2" stroke="black"/>
<ellipse cx="80.5" cy="105" rx="3.5" ry="3" fill="#4B389B"/>
<path d="M84.9659 95.017V93.4545H95.875V95.017H91.3011V108H89.5398V95.017H84.9659ZM106.548 97.0909C106.463 96.3712 106.117 95.8125 105.511 95.4148C104.905 95.017 104.162 94.8182 103.281 94.8182C102.637 94.8182 102.074 94.9223 101.591 95.1307C101.112 95.339 100.738 95.6255 100.468 95.9901C100.203 96.3546 100.071 96.7689 100.071 97.233C100.071 97.6212 100.163 97.955 100.348 98.2344C100.537 98.509 100.779 98.7386 101.072 98.9233C101.366 99.1032 101.673 99.2524 101.995 99.3707C102.317 99.4844 102.613 99.5767 102.883 99.6477L104.36 100.045C104.739 100.145 105.161 100.282 105.625 100.457C106.093 100.633 106.541 100.872 106.967 101.175C107.398 101.473 107.753 101.857 108.032 102.325C108.312 102.794 108.451 103.369 108.451 104.051C108.451 104.837 108.245 105.547 107.833 106.182C107.426 106.816 106.83 107.321 106.044 107.695C105.262 108.069 104.313 108.256 103.196 108.256C102.154 108.256 101.252 108.088 100.49 107.751C99.7321 107.415 99.1355 106.946 98.6999 106.345C98.2691 105.744 98.0252 105.045 97.9684 104.25H99.7866C99.8339 104.799 100.019 105.254 100.341 105.614C100.667 105.969 101.079 106.234 101.576 106.409C102.078 106.58 102.618 106.665 103.196 106.665C103.868 106.665 104.472 106.556 105.007 106.338C105.542 106.116 105.966 105.808 106.278 105.415C106.591 105.017 106.747 104.553 106.747 104.023C106.747 103.54 106.612 103.147 106.342 102.844C106.072 102.541 105.717 102.295 105.277 102.105C104.836 101.916 104.36 101.75 103.849 101.608L102.059 101.097C100.923 100.77 100.023 100.304 99.3604 99.6974C98.6976 99.0914 98.3661 98.2983 98.3661 97.3182C98.3661 96.5038 98.5863 95.7936 99.0266 95.1875C99.4717 94.5767 100.068 94.1032 100.816 93.767C101.569 93.4261 102.41 93.2557 103.338 93.2557C104.275 93.2557 105.109 93.4238 105.838 93.7599C106.567 94.0914 107.145 94.5459 107.571 95.1236C108.002 95.7012 108.229 96.357 108.252 97.0909H106.548Z" fill="black"/>
</svg>
