<svg width="128" height="128" viewBox="0 0 128 128" stroke-width="2" fill="none" xmlns="http://www.w3.org/2000/svg">
<rect width="128" height="128" fill="none"/>
<rect x="9.5" y="26.5" width="109" height="25" rx="2.5" stroke="white"/>
<rect x="9.5" y="63.5" width="109" height="25" rx="2.5" stroke="white"/>
<rect x="9.5" y="97.5" width="109" height="25" rx="2.5" stroke="white"/>
<ellipse cx="70" cy="38.5" rx="6" ry="5.5" fill="white"/>
<ellipse cx="70" cy="38.5" rx="6" ry="5.5" fill="white"/>
<ellipse cx="70" cy="38.5" rx="6" ry="5.5" fill="white"/>
<ellipse cx="70" cy="75.5" rx="6" ry="5.5" fill="white"/>
<ellipse cx="70" cy="75.5" rx="6" ry="5.5" fill="white"/>
<ellipse cx="70" cy="75.5" rx="6" ry="5.5" fill="white"/>
<ellipse cx="70" cy="109.5" rx="6" ry="5.5" fill="white"/>
<ellipse cx="70" cy="109.5" rx="6" ry="5.5" fill="white"/>
<ellipse cx="70" cy="109.5" rx="6" ry="5.5" fill="white"/>
<ellipse cx="90" cy="109.5" rx="6" ry="5.5" fill="white"/>
<ellipse cx="90" cy="109.5" rx="6" ry="5.5" fill="white"/>
<ellipse cx="90" cy="109.5" rx="6" ry="5.5" fill="white"/>
<ellipse cx="108" cy="109.5" rx="6" ry="5.5" fill="white"/>
<ellipse cx="108" cy="109.5" rx="6" ry="5.5" fill="white"/>
<ellipse cx="108" cy="109.5" rx="6" ry="5.5" fill="white"/>
<ellipse cx="90" cy="75.5" rx="6" ry="5.5" fill="white"/>
<ellipse cx="90" cy="75.5" rx="6" ry="5.5" fill="white"/>
<ellipse cx="90" cy="75.5" rx="6" ry="5.5" fill="white"/>
<ellipse cx="108" cy="75.5" rx="6" ry="5.5" fill="white"/>
<ellipse cx="108" cy="75.5" rx="6" ry="5.5" fill="white"/>
<ellipse cx="108" cy="75.5" rx="6" ry="5.5" fill="white"/>
<ellipse cx="89" cy="38.5" rx="6" ry="5.5" fill="white"/>
<ellipse cx="89" cy="38.5" rx="6" ry="5.5" fill="white"/>
<ellipse cx="89" cy="38.5" rx="6" ry="5.5" fill="white"/>
<ellipse cx="108" cy="38.5" rx="6" ry="5.5" fill="white"/>
<ellipse cx="108" cy="38.5" rx="6" ry="5.5" fill="white"/>
<ellipse cx="108" cy="38.5" rx="6" ry="5.5" fill="white"/>
</svg>
