<svg width="300" height="350" viewBox="0 0 170 163" fill="none" xmlns="http://www.w3.org/2000/svg">
<rect width="170" height="163" fill="white"/>
<ellipse cx="82.5" cy="80" rx="7.5" ry="7" fill="#4A3799"/>
<path d="M162 81.5C162 84.2618 160.138 87.0918 156.29 89.8328C152.468 92.5557 146.871 95.0489 139.866 97.1595C125.868 101.377 106.47 104 85 104C63.5305 104 44.1322 101.377 30.1341 97.1595C23.1288 95.0489 17.5325 92.5557 13.7098 89.8328C9.86185 87.0918 8 84.2618 8 81.5C8 78.7382 9.86185 75.9082 13.7098 73.1672C17.5325 70.4443 23.1288 67.9511 30.1341 65.8405C44.1322 61.6231 63.5305 59 85 59C106.47 59 125.868 61.6231 139.866 65.8405C146.871 67.9511 152.468 70.4443 156.29 73.1672C160.138 75.9082 162 78.7382 162 81.5Z" stroke="black" stroke-width="2"/>
<path d="M116.558 148.87C114.097 150.124 110.731 149.75 106.541 147.566C102.38 145.396 97.6176 141.542 92.5567 136.258C82.444 125.7 71.3002 109.607 61.5532 90.4776C51.8063 71.3481 45.3368 52.8733 42.7395 38.4863C41.4397 31.2863 41.1205 25.168 41.8112 20.5258C42.5065 15.8529 44.1828 12.9092 46.6436 11.6553C49.1044 10.4015 52.4712 10.7756 56.6603 12.9598C60.822 15.1297 65.5841 18.9841 70.645 24.2677C80.7577 34.8255 91.9015 50.9186 101.649 70.048C111.395 89.1775 117.865 107.652 120.462 122.039C121.762 129.239 122.081 135.358 121.39 140C120.695 144.673 119.019 147.616 116.558 148.87Z" stroke="black" stroke-width="2"/>
<path d="M130.151 17.9448C132.386 19.5681 133.581 22.7378 133.536 27.462C133.492 32.1551 132.22 38.1481 129.81 45.0561C124.994 58.8597 115.714 76.0951 103.095 93.4643C90.4752 110.833 76.9511 124.985 65.3113 133.831C59.4861 138.258 54.1796 141.32 49.7298 142.812C45.2506 144.314 41.8667 144.157 39.6323 142.533C37.398 140.91 36.2028 137.74 36.2471 133.016C36.2911 128.323 37.5635 122.33 39.9736 115.422C44.7896 101.618 54.0695 84.3831 66.6889 67.0139C79.3084 49.6447 92.8325 35.493 104.472 26.6472C110.297 22.2204 115.604 19.1583 120.054 17.6662C124.533 16.1643 127.917 16.3214 130.151 17.9448Z" stroke="black" stroke-width="2"/>
</svg>
