<svg width="2800" height="542" viewBox="0 0 2591 542" fill="none" xmlns="http://www.w3.org/2000/svg">
<g clip-path="url(#clip0_49_2)" filter="url(#filter0_d_49_2)">
<rect width="2600" height="534" transform="translate(4)" fill="white"/>
<path d="M479.998 382V117.273H658.379V163.419H535.969V226.499H649.202V272.645H535.969V335.854H658.896V382H479.998ZM807.346 251.446V295.136H686.616V251.446H807.346ZM925.776 385.878C905.438 385.878 887.945 381.569 873.295 372.952C858.732 364.248 847.529 352.184 839.688 336.759C831.932 321.333 828.054 303.581 828.054 283.503C828.054 263.166 831.975 245.328 839.817 229.989C847.745 214.563 858.991 202.542 873.554 193.925C888.117 185.221 905.438 180.869 925.517 180.869C942.838 180.869 958.005 184.015 971.017 190.305C984.029 196.596 994.327 205.429 1001.91 216.804C1009.49 228.179 1013.67 241.536 1014.45 256.875H962.486C961.021 246.965 957.143 238.994 950.852 232.962C944.648 226.843 936.504 223.784 926.422 223.784C917.891 223.784 910.437 226.111 904.06 230.764C897.769 235.331 892.857 242.01 889.324 250.8C885.791 259.589 884.024 270.232 884.024 282.727C884.024 295.395 885.748 306.167 889.195 315.043C892.728 323.919 897.683 330.683 904.06 335.337C910.437 339.99 917.891 342.317 926.422 342.317C932.713 342.317 938.357 341.024 943.355 338.439C948.439 335.854 952.619 332.105 955.893 327.193C959.254 322.195 961.452 316.206 962.486 309.226H1014.45C1013.59 324.393 1009.45 337.75 1002.04 349.297C994.715 360.758 984.59 369.72 971.663 376.183C958.737 382.646 943.441 385.878 925.776 385.878ZM1121.21 385.878C1101.13 385.878 1083.77 381.612 1069.12 373.081C1054.56 364.464 1043.31 352.485 1035.38 337.146C1027.45 321.721 1023.49 303.84 1023.49 283.503C1023.49 262.993 1027.45 245.069 1035.38 229.73C1043.31 214.305 1054.56 202.327 1069.12 193.795C1083.77 185.178 1101.13 180.869 1121.21 180.869C1141.29 180.869 1158.61 185.178 1173.18 193.795C1187.83 202.327 1199.11 214.305 1207.04 229.73C1214.97 245.069 1218.93 262.993 1218.93 283.503C1218.93 303.84 1214.97 321.721 1207.04 337.146C1199.11 352.485 1187.83 364.464 1173.18 373.081C1158.61 381.612 1141.29 385.878 1121.21 385.878ZM1121.47 343.222C1130.61 343.222 1138.23 340.636 1144.35 335.466C1150.47 330.209 1155.08 323.057 1158.18 314.009C1161.37 304.96 1162.96 294.662 1162.96 283.115C1162.96 271.568 1161.37 261.27 1158.18 252.222C1155.08 243.173 1150.47 236.021 1144.35 230.764C1138.23 225.508 1130.61 222.879 1121.47 222.879C1112.25 222.879 1104.49 225.508 1098.2 230.764C1092 236.021 1087.3 243.173 1084.11 252.222C1081.01 261.27 1079.46 271.568 1079.46 283.115C1079.46 294.662 1081.01 304.96 1084.11 314.009C1087.3 323.057 1092 330.209 1098.2 335.466C1104.49 340.636 1112.25 343.222 1121.47 343.222ZM1236.54 382V183.455H1289.02V218.484H1291.35C1295.48 206.851 1302.38 197.673 1312.03 190.952C1321.68 184.23 1333.23 180.869 1346.67 180.869C1360.29 180.869 1371.88 184.273 1381.44 191.081C1391.01 197.803 1397.38 206.937 1400.57 218.484H1402.64C1406.69 207.109 1414.02 198.018 1424.61 191.21C1435.3 184.316 1447.92 180.869 1462.49 180.869C1481.02 180.869 1496.05 186.772 1507.6 198.578C1519.23 210.298 1525.05 226.929 1525.05 248.473V382H1470.11V259.331C1470.11 248.301 1467.18 240.028 1461.32 234.513C1455.46 228.998 1448.14 226.24 1439.35 226.24C1429.35 226.24 1421.56 229.429 1415.95 235.805C1410.35 242.096 1407.55 250.412 1407.55 260.753V382H1354.17V258.168C1354.17 248.43 1351.37 240.674 1345.77 234.901C1340.25 229.127 1332.97 226.24 1323.92 226.24C1317.8 226.24 1312.29 227.791 1307.37 230.893C1302.55 233.91 1298.71 238.175 1295.87 243.69C1293.03 249.119 1291.6 255.496 1291.6 262.821V382H1236.54ZM1550.35 382V183.455H1602.83V218.484H1605.15C1609.29 206.851 1616.18 197.673 1625.84 190.952C1635.49 184.23 1647.03 180.869 1660.48 180.869C1674.09 180.869 1685.68 184.273 1695.25 191.081C1704.81 197.803 1711.19 206.937 1714.38 218.484H1716.45C1720.5 207.109 1727.82 198.018 1738.42 191.21C1749.11 184.316 1761.73 180.869 1776.3 180.869C1794.82 180.869 1809.86 186.772 1821.41 198.578C1833.04 210.298 1838.86 226.929 1838.86 248.473V382H1783.92V259.331C1783.92 248.301 1780.99 240.028 1775.13 234.513C1769.27 228.998 1761.95 226.24 1753.16 226.24C1743.16 226.24 1735.36 229.429 1729.76 235.805C1724.16 242.096 1721.36 250.412 1721.36 260.753V382H1667.97V258.168C1667.97 248.43 1665.17 240.674 1659.57 234.901C1654.06 229.127 1646.78 226.24 1637.73 226.24C1631.61 226.24 1626.09 227.791 1621.18 230.893C1616.36 233.91 1612.52 238.175 1609.68 243.69C1606.83 249.119 1605.41 255.496 1605.41 262.821V382H1550.35ZM1954.64 385.878C1934.21 385.878 1916.64 381.741 1901.9 373.469C1887.25 365.11 1875.96 353.304 1868.03 338.051C1860.1 322.712 1856.14 304.572 1856.14 283.632C1856.14 263.209 1860.1 245.285 1868.03 229.859C1875.96 214.434 1887.12 202.413 1901.51 193.795C1915.99 185.178 1932.97 180.869 1952.44 180.869C1965.54 180.869 1977.73 182.981 1989.02 187.203C2000.4 191.339 2010.31 197.587 2018.75 205.946C2027.28 214.305 2033.92 224.818 2038.66 237.486C2043.4 250.067 2045.77 264.803 2045.77 281.693V296.817H1878.12V262.692H1993.93C1993.93 254.764 1992.21 247.741 1988.76 241.622C1985.32 235.504 1980.53 230.721 1974.41 227.274C1968.38 223.741 1961.36 221.974 1953.35 221.974C1944.99 221.974 1937.58 223.913 1931.11 227.791C1924.74 231.583 1919.74 236.71 1916.12 243.173C1912.5 249.55 1910.65 256.66 1910.56 264.501V296.946C1910.56 306.77 1912.37 315.258 1915.99 322.411C1919.69 329.563 1924.91 335.078 1931.63 338.956C1938.35 342.834 1946.32 344.773 1955.54 344.773C1961.66 344.773 1967.26 343.911 1972.35 342.188C1977.43 340.464 1981.78 337.879 1985.4 334.432C1989.02 330.985 1991.78 326.762 1993.67 321.764L2044.6 325.125C2042.02 337.362 2036.72 348.047 2028.7 357.182C2020.78 366.23 2010.52 373.296 1997.94 378.381C1985.45 383.379 1971.01 385.878 1954.64 385.878ZM2063.5 382V183.455H2116.89V218.097H2118.95C2122.57 205.774 2128.65 196.467 2137.18 190.176C2145.71 183.799 2155.54 180.611 2166.65 180.611C2169.41 180.611 2172.38 180.783 2175.57 181.128C2178.76 181.473 2181.56 181.946 2183.97 182.55V231.411C2181.39 230.635 2177.81 229.946 2173.24 229.342C2168.68 228.739 2164.5 228.438 2160.71 228.438C2152.61 228.438 2145.37 230.204 2138.99 233.737C2132.7 237.184 2127.7 242.01 2124 248.214C2120.38 254.419 2118.57 261.571 2118.57 269.672V382H2063.5ZM2274.71 385.878C2254.37 385.878 2236.88 381.569 2222.23 372.952C2207.66 364.248 2196.46 352.184 2188.62 336.759C2180.86 321.333 2176.99 303.581 2176.99 283.503C2176.99 263.166 2180.91 245.328 2188.75 229.989C2196.68 214.563 2207.92 202.542 2222.49 193.925C2237.05 185.221 2254.37 180.869 2274.45 180.869C2291.77 180.869 2306.94 184.015 2319.95 190.305C2332.96 196.596 2343.26 205.429 2350.84 216.804C2358.43 228.179 2362.61 241.536 2363.38 256.875H2311.42C2309.95 246.965 2306.08 238.994 2299.79 232.962C2293.58 226.843 2285.44 223.784 2275.35 223.784C2266.82 223.784 2259.37 226.111 2252.99 230.764C2246.7 235.331 2241.79 242.01 2238.26 250.8C2234.72 259.589 2232.96 270.232 2232.96 282.727C2232.96 295.395 2234.68 306.167 2238.13 315.043C2241.66 323.919 2246.62 330.683 2252.99 335.337C2259.37 339.99 2266.82 342.317 2275.35 342.317C2281.65 342.317 2287.29 341.024 2292.29 338.439C2297.37 335.854 2301.55 332.105 2304.83 327.193C2308.19 322.195 2310.38 316.206 2311.42 309.226H2363.38C2362.52 324.393 2358.38 337.75 2350.97 349.297C2343.65 360.758 2333.52 369.72 2320.6 376.183C2307.67 382.646 2292.37 385.878 2274.71 385.878ZM2470.92 385.878C2450.5 385.878 2432.92 381.741 2418.18 373.469C2403.53 365.11 2392.24 353.304 2384.32 338.051C2376.39 322.712 2372.42 304.572 2372.42 283.632C2372.42 263.209 2376.39 245.285 2384.32 229.859C2392.24 214.434 2403.4 202.413 2417.79 193.795C2432.27 185.178 2449.25 180.869 2468.72 180.869C2481.82 180.869 2494.02 182.981 2505.3 187.203C2516.68 191.339 2526.59 197.587 2535.03 205.946C2543.57 214.305 2550.2 224.818 2554.94 237.486C2559.68 250.067 2562.05 264.803 2562.05 281.693V296.817H2394.4V262.692H2510.22C2510.22 254.764 2508.49 247.741 2505.05 241.622C2501.6 235.504 2496.82 230.721 2490.7 227.274C2484.67 223.741 2477.64 221.974 2469.63 221.974C2461.27 221.974 2453.86 223.913 2447.4 227.791C2441.02 231.583 2436.02 236.71 2432.4 243.173C2428.78 249.55 2426.93 256.66 2426.84 264.501V296.946C2426.84 306.77 2428.65 315.258 2432.27 322.411C2435.98 329.563 2441.19 335.078 2447.91 338.956C2454.63 342.834 2462.6 344.773 2471.83 344.773C2477.94 344.773 2483.55 343.911 2488.63 342.188C2493.71 340.464 2498.07 337.879 2501.68 334.432C2505.3 330.985 2508.06 326.762 2509.96 321.764L2560.89 325.125C2558.3 337.362 2553 348.047 2544.99 357.182C2537.06 366.23 2526.8 373.296 2514.22 378.381C2501.73 383.379 2487.29 385.878 2470.92 385.878Z" fill="#999999"/>
<g clip-path="url(#clip1_49_2)">
<path d="M3.70834 124H78.5417L128.68 298.07C130.391 304.055 135.077 309.431 141.917 313.258C148.757 317.084 157.317 319.117 166.097 319H347.942C356.722 319.117 365.281 317.084 372.121 313.258C378.962 309.431 383.648 304.055 385.358 298.07L415.292 189H97.25M172.083 384C172.083 391.18 163.707 397 153.375 397C143.043 397 134.667 391.18 134.667 384C134.667 376.82 143.043 371 153.375 371C163.707 371 172.083 376.82 172.083 384ZM377.875 384C377.875 391.18 369.499 397 359.167 397C348.834 397 340.458 391.18 340.458 384C340.458 376.82 348.834 371 359.167 371C369.499 371 377.875 376.82 377.875 384Z" stroke="#999999" stroke-width="42" stroke-linecap="round" stroke-linejoin="round"/>
</g>
</g>
<defs>
<filter id="filter0_d_49_2" x="0" y="0" width="2591" height="542" filterUnits="userSpaceOnUse" color-interpolation-filters="sRGB">
<feFlood flood-opacity="0" result="BackgroundImageFix"/>
<feColorMatrix in="SourceAlpha" type="matrix" values="0 0 0 0 0 0 0 0 0 0 0 0 0 0 0 0 0 0 127 0" result="hardAlpha"/>
<feOffset dy="4"/>
<feGaussianBlur stdDeviation="2"/>
<feComposite in2="hardAlpha" operator="out"/>
<feColorMatrix type="matrix" values="0 0 0 0 0 0 0 0 0 0 0 0 0 0 0 0 0 0 0.25 0"/>
<feBlend mode="normal" in2="BackgroundImageFix" result="effect1_dropShadow_49_2"/>
<feBlend mode="normal" in="SourceGraphic" in2="effect1_dropShadow_49_2" result="shape"/>
</filter>
<clipPath id="clip0_49_2">
<rect width="2800" height="534" fill="white" transform="translate(4)"/>
</clipPath>
<clipPath id="clip1_49_2">
<rect width="449" height="312" fill="white" transform="translate(-15 111)"/>
</clipPath>
</defs>
</svg>
