<svg width="3217" height="700" viewBox="0 0 3217 903" fill="none" xmlns="http://www.w3.org/2000/svg">
<rect width="3217" height="903" fill="white"/>
<path d="M810.573 640L707.565 280H790.71L850.3 530.137H853.288L919.03 280H990.222L1055.79 530.664H1058.95L1118.54 280H1201.69L1098.68 640H1024.5L955.944 404.629H953.132L884.753 640H810.573ZM1315.9 483.906V640H1241.02V280H1313.79V417.637H1316.96C1323.05 401.699 1332.89 389.219 1346.49 380.195C1360.08 371.055 1377.13 366.484 1397.64 366.484C1416.39 366.484 1432.74 370.586 1446.68 378.789C1460.74 386.875 1471.64 398.535 1479.38 413.77C1487.23 428.887 1491.1 446.992 1490.98 468.086V640H1416.1V481.445C1416.21 464.805 1411.99 451.855 1403.44 442.598C1395 433.34 1383.17 428.711 1367.93 428.711C1357.74 428.711 1348.71 430.879 1340.86 435.215C1333.13 439.551 1327.03 445.879 1322.58 454.199C1318.24 462.402 1316.02 472.305 1315.9 483.906ZM1626.9 645.098C1609.67 645.098 1594.32 642.109 1580.85 636.133C1567.37 630.039 1556.71 621.074 1548.85 609.238C1541.12 597.285 1537.25 582.402 1537.25 564.59C1537.25 549.59 1540.01 536.992 1545.51 526.797C1551.02 516.602 1558.52 508.398 1568.01 502.187C1577.51 495.977 1588.29 491.289 1600.36 488.125C1612.55 484.961 1625.32 482.734 1638.68 481.445C1654.38 479.805 1667.04 478.281 1676.65 476.875C1686.26 475.352 1693.23 473.125 1697.57 470.195C1701.9 467.266 1704.07 462.93 1704.07 457.187V456.133C1704.07 445 1700.55 436.387 1693.52 430.293C1686.61 424.199 1676.76 421.152 1663.99 421.152C1650.51 421.152 1639.79 424.141 1631.82 430.117C1623.85 435.977 1618.58 443.359 1616 452.266L1546.75 446.641C1550.26 430.234 1557.17 416.055 1567.49 404.102C1577.8 392.031 1591.1 382.773 1607.39 376.328C1623.8 369.766 1642.78 366.484 1664.34 366.484C1679.34 366.484 1693.7 368.242 1707.41 371.758C1721.24 375.273 1733.48 380.723 1744.15 388.105C1754.93 395.488 1763.42 404.98 1769.64 416.582C1775.85 428.066 1778.95 441.836 1778.95 457.891V640H1707.94V602.559H1705.83C1701.49 610.996 1695.69 618.437 1688.42 624.883C1681.16 631.211 1672.43 636.191 1662.23 639.824C1652.04 643.34 1640.26 645.098 1626.9 645.098ZM1648.35 593.418C1659.36 593.418 1669.09 591.25 1677.53 586.914C1685.96 582.461 1692.58 576.484 1697.39 568.984C1702.19 561.484 1704.6 552.988 1704.6 543.496V514.844C1702.25 516.367 1699.03 517.773 1694.93 519.062C1690.94 520.234 1686.43 521.348 1681.39 522.402C1676.35 523.34 1671.32 524.219 1666.28 525.039C1661.24 525.742 1656.67 526.387 1652.57 526.973C1643.78 528.262 1636.1 530.312 1629.54 533.125C1622.98 535.937 1617.88 539.746 1614.25 544.551C1610.61 549.238 1608.8 555.098 1608.8 562.129C1608.8 572.324 1612.49 580.117 1619.87 585.508C1627.37 590.781 1636.86 593.418 1648.35 593.418ZM1980.66 370V426.25H1818.06V370H1980.66ZM1854.98 305.312H1929.86V557.031C1929.86 563.945 1930.92 569.336 1933.02 573.203C1935.13 576.953 1938.06 579.59 1941.81 581.113C1945.68 582.637 1950.13 583.398 1955.17 583.398C1958.69 583.398 1962.2 583.105 1965.72 582.52C1969.24 581.816 1971.93 581.289 1973.81 580.937L1985.58 636.66C1981.83 637.832 1976.56 639.18 1969.76 640.703C1962.97 642.344 1954.7 643.34 1944.98 643.691C1926.93 644.395 1911.11 641.992 1897.52 636.484C1884.04 630.977 1873.55 622.422 1866.05 610.82C1858.55 599.219 1854.86 584.57 1854.98 566.875V305.312ZM2250.71 446.992L2182.15 451.211C2180.98 445.352 2178.46 440.078 2174.59 435.391C2170.72 430.586 2165.63 426.777 2159.3 423.965C2153.09 421.035 2145.65 419.57 2136.97 419.57C2125.37 419.57 2115.59 422.031 2107.62 426.953C2099.65 431.758 2095.67 438.203 2095.67 446.289C2095.67 452.734 2098.24 458.184 2103.4 462.637C2108.56 467.09 2117.4 470.664 2129.94 473.359L2178.81 483.203C2205.06 488.594 2224.63 497.266 2237.52 509.219C2250.41 521.172 2256.86 536.875 2256.86 556.328C2256.86 574.023 2251.64 589.551 2241.21 602.91C2230.9 616.27 2216.72 626.699 2198.67 634.199C2180.74 641.582 2160.06 645.273 2136.62 645.273C2100.88 645.273 2072.4 637.832 2051.19 622.949C2030.1 607.949 2017.74 587.559 2014.1 561.777L2087.76 557.91C2089.98 568.809 2095.37 577.129 2103.93 582.871C2112.48 588.496 2123.44 591.309 2136.8 591.309C2149.92 591.309 2160.47 588.789 2168.44 583.75C2176.53 578.594 2180.63 571.973 2180.74 563.887C2180.63 557.09 2177.76 551.523 2172.13 547.188C2166.51 542.734 2157.83 539.336 2146.12 536.992L2099.36 527.676C2072.99 522.402 2053.36 513.262 2040.47 500.254C2027.7 487.246 2021.31 470.664 2021.31 450.508C2021.31 433.164 2026 418.223 2035.37 405.684C2044.87 393.145 2058.17 383.477 2075.28 376.68C2092.5 369.883 2112.66 366.484 2135.74 366.484C2169.85 366.484 2196.68 373.691 2216.25 388.105C2235.94 402.52 2247.42 422.148 2250.71 446.992ZM2381 645.098C2363.78 645.098 2348.42 642.109 2334.95 636.133C2321.47 630.039 2310.81 621.074 2302.96 609.238C2295.22 597.285 2291.35 582.402 2291.35 564.59C2291.35 549.59 2294.11 536.992 2299.62 526.797C2305.12 516.602 2312.62 508.398 2322.12 502.187C2331.61 495.977 2342.39 491.289 2354.46 488.125C2366.65 484.961 2379.42 482.734 2392.78 481.445C2408.48 479.805 2421.14 478.281 2430.75 476.875C2440.36 475.352 2447.33 473.125 2451.67 470.195C2456 467.266 2458.17 462.93 2458.17 457.187V456.133C2458.17 445 2454.66 436.387 2447.62 430.293C2440.71 424.199 2430.87 421.152 2418.09 421.152C2404.62 421.152 2393.89 424.141 2385.92 430.117C2377.96 435.977 2372.68 443.359 2370.1 452.266L2300.85 446.641C2304.36 430.234 2311.28 416.055 2321.59 404.102C2331.9 392.031 2345.2 382.773 2361.49 376.328C2377.9 369.766 2396.88 366.484 2418.44 366.484C2433.44 366.484 2447.8 368.242 2461.51 371.758C2475.34 375.273 2487.58 380.723 2498.25 388.105C2509.03 395.488 2517.53 404.98 2523.74 416.582C2529.95 428.066 2533.05 441.836 2533.05 457.891V640H2462.04V602.559H2459.93C2455.59 610.996 2449.79 618.437 2442.53 624.883C2435.26 631.211 2426.53 636.191 2416.33 639.824C2406.14 643.34 2394.36 645.098 2381 645.098ZM2402.45 593.418C2413.46 593.418 2423.19 591.25 2431.63 586.914C2440.07 582.461 2446.69 576.484 2451.49 568.984C2456.3 561.484 2458.7 552.988 2458.7 543.496V514.844C2456.35 516.367 2453.13 517.773 2449.03 519.062C2445.05 520.234 2440.53 521.348 2435.5 522.402C2430.46 523.34 2425.42 524.219 2420.38 525.039C2415.34 525.742 2410.77 526.387 2406.67 526.973C2397.88 528.262 2390.2 530.312 2383.64 533.125C2377.08 535.937 2371.98 539.746 2368.35 544.551C2364.71 549.238 2362.9 555.098 2362.9 562.129C2362.9 572.324 2366.59 580.117 2373.97 585.508C2381.47 590.781 2390.96 593.418 2402.45 593.418ZM2591.15 741.25V370H2664.98V415.352H2668.32C2671.6 408.086 2676.34 400.703 2682.56 393.203C2688.88 385.586 2697.09 379.258 2707.17 374.219C2717.36 369.063 2730.02 366.484 2745.13 366.484C2764.82 366.484 2782.99 371.641 2799.63 381.953C2816.27 392.148 2829.57 407.559 2839.53 428.184C2849.49 448.691 2854.47 474.414 2854.47 505.352C2854.47 535.469 2849.61 560.898 2839.88 581.641C2830.27 602.266 2817.15 617.91 2800.5 628.574C2783.98 639.121 2765.47 644.395 2744.96 644.395C2730.43 644.395 2718.06 641.992 2707.87 637.187C2697.79 632.383 2689.53 626.348 2683.08 619.082C2676.64 611.699 2671.72 604.258 2668.32 596.758H2666.03V741.25H2591.15ZM2664.45 505C2664.45 521.055 2666.68 535.059 2671.13 547.012C2675.58 558.965 2682.03 568.281 2690.47 574.961C2698.9 581.523 2709.16 584.805 2721.23 584.805C2733.42 584.805 2743.73 581.465 2752.17 574.785C2760.6 567.988 2766.99 558.613 2771.33 546.66C2775.78 534.59 2778 520.703 2778 505C2778 489.414 2775.84 475.703 2771.5 463.867C2767.17 452.031 2760.78 442.773 2752.34 436.094C2743.9 429.414 2733.53 426.074 2721.23 426.074C2709.04 426.074 2698.73 429.297 2690.29 435.742C2681.97 442.187 2675.58 451.328 2671.13 463.164C2666.68 475 2664.45 488.945 2664.45 505ZM2904.39 741.25V370H2978.22V415.352H2981.56C2984.84 408.086 2989.59 400.703 2995.8 393.203C3002.13 385.586 3010.33 379.258 3020.41 374.219C3030.6 369.063 3043.26 366.484 3058.38 366.484C3078.06 366.484 3096.23 371.641 3112.87 381.953C3129.51 392.148 3142.81 407.559 3152.77 428.184C3162.73 448.691 3167.71 474.414 3167.71 505.352C3167.71 535.469 3162.85 560.898 3153.12 581.641C3143.51 602.266 3130.39 617.91 3113.75 628.574C3097.22 639.121 3078.71 644.395 3058.2 644.395C3043.67 644.395 3031.31 641.992 3021.11 637.187C3011.03 632.383 3002.77 626.348 2996.33 619.082C2989.88 611.699 2984.96 604.258 2981.56 596.758H2979.27V741.25H2904.39ZM2977.69 505C2977.69 521.055 2979.92 535.059 2984.37 547.012C2988.83 558.965 2995.27 568.281 3003.71 574.961C3012.15 581.523 3022.4 584.805 3034.47 584.805C3046.66 584.805 3056.97 581.465 3065.41 574.785C3073.84 567.988 3080.23 558.613 3084.57 546.66C3089.02 534.59 3091.25 520.703 3091.25 505C3091.25 489.414 3089.08 475.703 3084.74 463.867C3080.41 452.031 3074.02 442.773 3065.58 436.094C3057.15 429.414 3046.77 426.074 3034.47 426.074C3022.28 426.074 3011.97 429.297 3003.53 435.742C2995.21 442.187 2988.83 451.328 2984.37 463.164C2979.92 475 2977.69 488.945 2977.69 505Z" fill="#999999"/>
<path d="M525.667 509.855V538.73C525.68 541.411 525.014 544.064 523.713 546.52C522.411 548.976 520.502 551.181 518.108 552.993C515.713 554.805 512.887 556.185 509.809 557.044C506.731 557.902 503.469 558.221 500.233 557.98C464.333 554.762 429.848 544.641 399.55 528.431C371.361 513.654 347.462 493.937 329.55 470.681C309.833 445.572 297.563 416.983 293.733 387.232C293.442 384.571 293.825 381.888 294.859 379.356C295.893 376.823 297.555 374.496 299.739 372.522C301.923 370.548 304.581 368.971 307.544 367.891C310.507 366.811 313.711 366.253 316.95 366.25H351.95C357.612 366.204 363.101 367.858 367.394 370.904C371.687 373.95 374.491 378.18 375.283 382.805C376.761 392.046 379.5 401.119 383.45 409.851C385.02 413.296 385.359 417.04 384.429 420.64C383.498 424.239 381.337 427.543 378.2 430.16L363.383 442.384C379.991 466.48 404.175 486.432 433.383 500.134L448.2 487.91C451.372 485.322 455.377 483.539 459.74 482.771C464.103 482.003 468.641 482.284 472.817 483.579C483.402 486.837 494.399 489.097 505.6 490.316C511.267 490.976 516.443 493.331 520.143 496.933C523.843 500.536 525.809 505.135 525.667 509.855Z" fill="#999999"/>
<path d="M226.59 608.472C271.445 630.976 326.048 644.051 384.703 644.051C459.487 644.051 527.683 622.797 577.488 587.845C627.259 552.917 659.5 503.569 659.5 447.776C659.5 391.982 627.259 342.634 577.488 307.706C527.683 272.754 459.487 251.5 384.703 251.5C309.919 251.5 241.724 272.754 191.918 307.706C142.147 342.634 109.906 391.982 109.906 447.776C109.906 486.361 125.326 521.864 151.301 551.646L85.0925 632.726L60.1779 663.237L97.5949 650.924L226.59 608.472Z" stroke="#999999" stroke-width="23"/>
</svg>
