<svg width="3217" height="700" viewBox="0 0 3217 903" fill="none" xmlns="http://www.w3.org/2000/svg">
<g clip-path="url(#clip0_49_2)">
<rect width="3217" height="903" fill="white"/>
<path d="M159.263 295.845C159.263 284.665 163.348 275.42 171.518 268.11C179.688 260.37 190.008 256.5 202.478 256.5H381.788C412.748 256.5 440.053 262.735 463.703 275.205C487.783 287.245 506.273 304.66 519.173 327.45C532.503 349.81 539.168 375.825 539.168 405.495C539.168 435.595 532.718 462.04 519.818 484.83C506.918 507.19 488.643 524.605 464.993 537.075C441.343 549.115 413.608 555.135 381.788 555.135H245.693V649.95C245.693 670.59 238.168 686.5 223.118 697.68C208.498 708.43 187.213 713.805 159.263 713.805V295.845ZM381.788 480.315C404.578 480.315 422.208 473.65 434.678 460.32C447.148 446.99 453.383 428.5 453.383 404.85C453.383 381.63 446.933 363.57 434.033 350.67C421.563 337.77 404.148 331.32 381.788 331.32H245.693V480.315H381.788ZM737.304 713.805C709.354 713.805 683.984 708.86 661.194 698.97C638.834 688.65 621.204 674.46 608.304 656.4C595.404 638.34 588.954 617.915 588.954 595.125V504.18C588.954 480.96 595.189 459.89 607.659 440.97C620.559 422.05 638.189 407.215 660.549 396.465C682.909 385.285 708.494 379.695 737.304 379.695C766.114 379.695 791.699 385.285 814.059 396.465C836.849 407.215 854.479 422.05 866.949 440.97C879.849 459.89 886.299 480.96 886.299 504.18V595.125C886.299 617.915 879.634 638.34 866.304 656.4C853.404 674.46 835.559 688.65 812.769 698.97C790.409 708.86 765.254 713.805 737.304 713.805ZM737.304 644.79C758.804 644.79 775.574 639.845 787.614 629.955C800.084 620.065 806.319 606.735 806.319 589.965V508.05C806.319 490.42 800.084 476.23 787.614 465.48C775.574 454.3 758.804 448.71 737.304 448.71C716.234 448.71 699.464 454.3 686.994 465.48C674.524 476.23 668.289 490.42 668.289 508.05V589.965C668.289 606.735 674.524 620.065 686.994 629.955C699.464 639.845 716.234 644.79 737.304 644.79ZM1159.85 449.355C1134.48 449.355 1113.84 456.235 1097.93 469.995C1082.02 483.325 1074.06 500.095 1074.06 520.305V664.785C1074.06 681.985 1067.61 694.455 1054.71 702.195C1041.81 709.935 1021.6 713.805 994.085 713.805V441.615C994.085 421.835 1000.32 406.57 1012.79 395.82C1025.69 385.07 1045.04 379.695 1070.84 379.695V417.75C1064.39 425.06 1059.23 432.155 1055.36 439.035L1059.23 441.615C1086.32 400.335 1120.29 379.695 1161.14 379.695C1179.63 379.695 1193.6 384.64 1203.06 394.53C1212.52 403.99 1217.25 416.03 1217.25 430.65C1217.25 441.83 1214.24 451.29 1208.22 459.03C1196.61 452.58 1180.49 449.355 1159.85 449.355ZM1454.78 713.805C1419.95 713.805 1394.15 703.7 1377.38 683.49C1360.61 663.28 1352.22 637.265 1352.22 605.445V445.485H1285.79C1285.79 425.275 1289.66 410.225 1297.4 400.335C1305.14 390.445 1315.46 385.5 1328.36 385.5H1353.51V331.965C1353.51 314.335 1359.96 301.865 1372.86 294.555C1385.76 286.815 1405.33 282.945 1431.56 282.945V385.5H1517.34C1517.34 407 1513.26 422.48 1505.09 431.94C1496.92 440.97 1483.8 445.485 1465.74 445.485H1432.85V602.22C1432.85 617.27 1435.64 628.02 1441.23 634.47C1447.25 640.92 1457.36 644.145 1471.55 644.145C1486.6 644.145 1501.65 640.06 1516.7 631.89C1521 635.76 1524.44 640.705 1527.02 646.725C1529.6 652.315 1530.89 658.12 1530.89 664.14C1530.89 677.04 1524.22 688.65 1510.89 698.97C1497.56 708.86 1478.86 713.805 1454.78 713.805ZM1668.4 445.485H1616.8C1616.8 424.845 1619.81 409.795 1625.83 400.335C1631.85 390.445 1641.09 385.5 1653.56 385.5H1668.4V359.055C1668.4 328.095 1677.43 302.295 1695.49 281.655C1713.98 261.015 1741.07 250.695 1776.76 250.695C1800.41 250.695 1818.47 255.855 1830.94 266.175C1843.84 276.065 1850.29 287.46 1850.29 300.36C1850.29 306.38 1849 312.4 1846.42 318.42C1844.27 324.01 1841.04 328.74 1836.74 332.61C1821.69 324.44 1806 320.355 1789.66 320.355C1775.04 320.355 1764.5 323.795 1758.05 330.675C1751.6 337.125 1748.38 347.66 1748.38 362.28V385.5H1832.23C1832.23 407 1828.14 422.48 1819.97 431.94C1811.8 440.97 1798.47 445.485 1779.98 445.485H1748.38V664.785C1748.38 681.985 1741.71 694.455 1728.38 702.195C1715.48 709.935 1695.49 713.805 1668.4 713.805V445.485ZM2037.84 713.805C2009.89 713.805 1984.52 708.86 1961.73 698.97C1939.37 688.65 1921.74 674.46 1908.84 656.4C1895.94 638.34 1889.49 617.915 1889.49 595.125V504.18C1889.49 480.96 1895.72 459.89 1908.19 440.97C1921.09 422.05 1938.72 407.215 1961.08 396.465C1983.44 385.285 2009.03 379.695 2037.84 379.695C2066.65 379.695 2092.23 385.285 2114.59 396.465C2137.38 407.215 2155.01 422.05 2167.48 440.97C2180.38 459.89 2186.83 480.96 2186.83 504.18V595.125C2186.83 617.915 2180.17 638.34 2166.84 656.4C2153.94 674.46 2136.09 688.65 2113.3 698.97C2090.94 708.86 2065.79 713.805 2037.84 713.805ZM2037.84 644.79C2059.34 644.79 2076.11 639.845 2088.15 629.955C2100.62 620.065 2106.85 606.735 2106.85 589.965V508.05C2106.85 490.42 2100.62 476.23 2088.15 465.48C2076.11 454.3 2059.34 448.71 2037.84 448.71C2016.77 448.71 2000 454.3 1987.53 465.48C1975.06 476.23 1968.82 490.42 1968.82 508.05V589.965C1968.82 606.735 1975.06 620.065 1987.53 629.955C2000 639.845 2016.77 644.79 2037.84 644.79ZM2400.4 713.805C2364.71 713.805 2337.62 703.7 2319.13 683.49C2301.07 662.85 2292.04 636.835 2292.04 605.445V299.715C2292.04 282.085 2298.49 269.615 2311.39 262.305C2324.72 254.565 2345.14 250.695 2372.66 250.695V602.22C2372.66 616.84 2375.89 627.59 2382.34 634.47C2388.79 640.92 2399.11 644.145 2413.3 644.145C2429.21 644.145 2445.12 640.06 2461.03 631.89C2465.33 635.76 2468.55 640.705 2470.7 646.725C2473.28 652.315 2474.57 658.12 2474.57 664.14C2474.57 677.04 2468.12 688.65 2455.22 698.97C2442.32 708.86 2424.05 713.805 2400.4 713.805ZM2628.88 349.38C2613.4 349.38 2600.5 344.865 2590.18 335.835C2580.29 326.375 2575.34 314.335 2575.34 299.715C2575.34 285.525 2580.29 273.915 2590.18 264.885C2600.5 255.425 2613.4 250.695 2628.88 250.695C2644.36 250.695 2657.04 255.425 2666.93 264.885C2677.25 273.915 2682.41 285.525 2682.41 299.715C2682.41 314.335 2677.25 326.375 2666.93 335.835C2657.04 344.865 2644.36 349.38 2628.88 349.38ZM2588.24 428.715C2588.24 411.085 2594.91 398.615 2608.24 391.305C2621.57 383.565 2641.78 379.695 2668.87 379.695V664.785C2668.87 681.985 2662.2 694.455 2648.87 702.195C2635.54 709.935 2615.33 713.805 2588.24 713.805V428.715ZM2922.22 713.805C2894.27 713.805 2868.9 708.86 2846.11 698.97C2823.75 688.65 2806.12 674.46 2793.22 656.4C2780.32 638.34 2773.87 617.915 2773.87 595.125V504.18C2773.87 480.96 2780.1 459.89 2792.57 440.97C2805.47 422.05 2823.1 407.215 2845.46 396.465C2867.82 385.285 2893.41 379.695 2922.22 379.695C2951.03 379.695 2976.61 385.285 2998.97 396.465C3021.76 407.215 3039.39 422.05 3051.86 440.97C3064.76 459.89 3071.21 480.96 3071.21 504.18V595.125C3071.21 617.915 3064.55 638.34 3051.22 656.4C3038.32 674.46 3020.47 688.65 2997.68 698.97C2975.32 708.86 2950.17 713.805 2922.22 713.805ZM2922.22 644.79C2943.72 644.79 2960.49 639.845 2972.53 629.955C2985 620.065 2991.23 606.735 2991.23 589.965V508.05C2991.23 490.42 2985 476.23 2972.53 465.48C2960.49 454.3 2943.72 448.71 2922.22 448.71C2901.15 448.71 2884.38 454.3 2871.91 465.48C2859.44 476.23 2853.2 490.42 2853.2 508.05V589.965C2853.2 606.735 2859.44 620.065 2871.91 629.955C2884.38 639.845 2901.15 644.79 2922.22 644.79Z" fill="#999999"/>
</g>
<defs>
<clipPath id="clip0_49_2">
<rect width="3217" height="903" fill="white"/>
</clipPath>
</defs>
</svg>
